<svg width="21" height="16" viewBox="0 0 21 16" fill="none" xmlns="http://www.w3.org/2000/svg">
<path d="M17.99 2.24302C18.1127 2.12138 18.2101 1.97674 18.2767 1.81738C18.3433 1.65802 18.3777 1.48708 18.3781 1.31438C18.3784 1.14168 18.3446 0.970607 18.2787 0.810984C18.2127 0.651361 18.1159 0.506329 17.9937 0.384209C17.8715 0.262089 17.7264 0.165286 17.5668 0.0993538C17.4071 0.0334218 17.2359 -0.000340999 17.0632 2.59634e-06C16.8904 0.000346191 16.7194 0.0347895 16.56 0.101356C16.4006 0.167923 16.2559 0.265302 16.1342 0.387907L15.1933 1.32843C13.7806 0.463521 12.1566 0.00506349 10.5 0.00353769C5.65276 0.00353769 2.69469 3.43706 0.22109 7.14733C0.0769472 7.36266 0 7.61593 0 7.87502C0 8.13412 0.0769472 8.38738 0.22109 8.60272C1.21019 10.1404 2.37044 11.5611 3.67964 12.8376L3.01 13.507C2.88735 13.6286 2.78993 13.7733 2.72334 13.9326C2.65675 14.092 2.62229 14.2629 2.62195 14.4356C2.6216 14.6083 2.65538 14.7794 2.72133 14.939C2.78729 15.0986 2.88413 15.2437 3.0063 15.3658C3.12847 15.4879 3.27356 15.5847 3.43324 15.6506C3.59293 15.7166 3.76406 15.7503 3.93683 15.75C4.1096 15.7497 4.28061 15.7152 4.44003 15.6486C4.59945 15.5821 4.74415 15.4847 4.86583 15.3621L17.99 2.24302ZM2.90231 7.875C5.53998 4.11223 7.71623 2.62737 10.5 2.62737C11.4588 2.62512 12.406 2.83755 13.2719 3.24905L11.1735 5.34662C10.9546 5.28352 10.7279 5.2514 10.5 5.25117C9.80406 5.25186 9.13682 5.52852 8.64472 6.02043C8.15261 6.51235 7.87584 7.17933 7.87516 7.875C7.87539 8.10277 7.90753 8.32939 7.97064 8.54825L5.53468 10.9833C4.54972 10.0432 3.66732 9.00123 2.90231 7.875V7.875Z" fill="#8D92A3"/>
<path d="M20.7789 7.14725C20.2488 6.35212 19.6894 5.57831 19.1009 4.83972L17.2315 6.70846C17.516 7.07295 17.8031 7.45472 18.0977 7.87495C15.5698 11.4813 13.4599 12.9791 10.8385 13.0989L8.4375 15.499C9.11361 15.6581 9.80542 15.7411 10.5 15.7464C15.3472 15.7464 18.3053 12.3129 20.7789 8.60262C20.9231 8.38729 21 8.13403 21 7.87494C21 7.61584 20.9231 7.36258 20.7789 7.14725V7.14725Z" fill="#8D92A3"/>
</svg>
