<svg width="28" height="22" viewBox="0 0 28 22" fill="none" xmlns="http://www.w3.org/2000/svg">
<path d="M23.9867 3.7363C24.1502 3.57412 24.2801 3.38126 24.3689 3.16878C24.4577 2.9563 24.5036 2.72838 24.5041 2.49811C24.5045 2.26784 24.4595 2.03975 24.3716 1.82692C24.2836 1.61409 24.1545 1.42071 23.9916 1.25788C23.8287 1.09506 23.6353 0.965987 23.4224 0.878077C23.2094 0.790168 22.9813 0.745151 22.7509 0.745609C22.5205 0.746067 22.2925 0.791991 22.08 0.880747C21.8674 0.969503 21.6745 1.09934 21.5122 1.26282L20.2577 2.51684C18.3742 1.36363 16.2088 0.752357 14 0.750322C7.53702 0.750322 3.59293 5.32835 0.294787 10.2754C0.102596 10.5625 0 10.9002 0 11.2456C0 11.5911 0.102596 11.9288 0.294787 12.2159C1.61359 14.2662 3.16059 16.1604 4.90618 17.8624L4.01333 18.7549C3.8498 18.9171 3.71991 19.11 3.63112 19.3224C3.54233 19.5349 3.49638 19.7628 3.49593 19.9931C3.49547 20.2234 3.5405 20.4515 3.62845 20.6643C3.71639 20.8771 3.84551 21.0705 4.0084 21.2333C4.17129 21.3962 4.36474 21.5252 4.57766 21.6131C4.79057 21.701 5.01875 21.7461 5.24911 21.7456C5.47947 21.7451 5.70748 21.6992 5.92004 21.6105C6.1326 21.5217 6.32554 21.3919 6.48778 21.2284L23.9867 3.7363ZM3.86975 11.2456C7.38663 6.22858 10.2883 4.24876 14 4.24876C15.2784 4.24577 16.5413 4.529 17.6959 5.07768L14.898 7.87443C14.6061 7.7903 14.3038 7.74747 14 7.74717C13.0721 7.74809 12.1824 8.11697 11.5263 8.77285C10.8701 9.42874 10.5011 10.318 10.5002 11.2456C10.5005 11.5493 10.5434 11.8515 10.6275 12.1433L7.37958 15.3899C6.06629 14.1365 4.88977 12.7472 3.86975 11.2456V11.2456Z" fill="#020202"/>
<path d="M27.7053 10.2753C26.9985 9.21514 26.2525 8.18339 25.4679 7.19861L22.9753 9.69025C23.3547 10.1762 23.7375 10.6853 24.1303 11.2456C20.7598 16.054 17.9465 18.0511 14.4514 18.2108L11.2501 21.411C12.1515 21.6232 13.074 21.7338 14.0001 21.7409C20.4631 21.7409 24.4072 17.1628 27.7053 12.2158C27.8975 11.9287 28.0001 11.591 28.0001 11.2456C28.0001 10.9001 27.8975 10.5624 27.7053 10.2753V10.2753Z" fill="#020202"/>
</svg>
