<svg width="28" height="21" viewBox="0 0 28 21" fill="none" xmlns="http://www.w3.org/2000/svg">
<path d="M27.7056 9.5293C24.4056 4.58008 20.4613 0 13.9996 0C7.5379 0 3.59358 4.58008 0.293532 9.5293C0.102124 9.81685 0 10.1546 0 10.5C0 10.8454 0.102124 11.1831 0.293532 11.4707C3.59358 16.4199 7.5379 21 13.9996 21C20.4613 21 24.4056 16.4199 27.7056 11.4707C27.897 11.1831 27.9992 10.8454 27.9992 10.5C27.9992 10.1546 27.897 9.81685 27.7056 9.5293V9.5293ZM13.9996 17.5C10.286 17.5 7.38752 15.5194 3.86873 10.5C7.38752 5.48072 10.286 3.50001 13.9996 3.50001C17.7132 3.50001 20.6116 5.48072 24.1304 10.5C20.6116 15.5194 17.7132 17.5 13.9996 17.5Z" fill="#020202"/>
<path d="M13.9996 7.00012C13.3074 7.00012 12.6307 7.20539 12.0552 7.58996C11.4796 7.97453 11.031 8.52114 10.7661 9.16066C10.5012 9.80019 10.4319 10.5039 10.5669 11.1828C10.702 11.8617 11.0353 12.4853 11.5248 12.9748C12.0143 13.4643 12.6379 13.7976 13.3168 13.9327C13.9957 14.0677 14.6994 13.9984 15.3389 13.7335C15.9785 13.4686 16.5251 13.02 16.9096 12.4445C17.2942 11.8689 17.4995 11.1922 17.4995 10.5C17.4982 9.57217 17.1291 8.68268 16.473 8.02659C15.8169 7.3705 14.9274 7.00136 13.9996 7.00012V7.00012Z" fill="#020202"/>
</svg>
