<svg width="21" height="16" viewBox="0 0 21 16" fill="none" xmlns="http://www.w3.org/2000/svg">
<path d="M20.7798 7.14719C18.3047 3.43516 15.3464 0 10.5 0C5.6536 0 2.69527 3.43516 0.220156 7.14719C0.0765954 7.36286 0 7.61616 0 7.87524C0 8.13431 0.0765954 8.38761 0.220156 8.60328C2.69527 12.3153 5.6536 15.7505 10.5 15.7505C15.3464 15.7505 18.3047 12.3153 20.7798 8.60328C20.9234 8.38761 21 8.13431 21 7.87524C21 7.61616 20.9234 7.36286 20.7798 7.14719V7.14719ZM10.5 13.1254C7.7147 13.1254 5.54081 11.6399 2.90164 7.87524C5.54081 4.11066 7.7147 2.62509 10.5 2.62509C13.2853 2.62509 15.4592 4.11066 18.0984 7.87524C15.4592 11.6399 13.2853 13.1254 10.5 13.1254Z" fill="#020202"/>
<path d="M10.5001 5.25024C9.98089 5.25024 9.47337 5.4042 9.04169 5.69264C8.61001 5.98107 8.27356 6.39104 8.07488 6.8707C7.8762 7.35035 7.82421 7.87815 7.9255 8.38735C8.02679 8.89655 8.27679 9.36428 8.64391 9.7314C9.01102 10.0985 9.47875 10.3485 9.98795 10.4498C10.4971 10.5511 11.0249 10.4991 11.5046 10.3004C11.9843 10.1017 12.3942 9.76529 12.6827 9.33361C12.9711 8.90193 13.1251 8.39442 13.1251 7.87524C13.1241 7.17934 12.8473 6.5122 12.3552 6.02012C11.8631 5.52804 11.196 5.25118 10.5001 5.25024V5.25024Z" fill="#020202"/>
</svg>
